<svg width="21" height="21" fill="none" xmlns="http://www.w3.org/2000/svg"><path d="m20.13 6.933-.005-.052a.708.708 0 0 0-.06-.187l-2.94-5.27S16.75.905 16.66.905H4.127l-3.77 5.61-.044.052-.006.024a.969.969 0 0 0-.078.18l-.016.05a.902.902 0 0 0 .007.492l.017.056a.908.908 0 0 0 .087.182l9.113 12.85.019.03a.83.83 0 0 0 .173.181l.053.037a.901.901 0 0 0 .186.097l.051.02c.09.024.167.036.242.036a.877.877 0 0 0 .253-.04l.061-.024a.87.87 0 0 0 .18-.098l.041-.029a.76.76 0 0 0 .158-.162l9.124-12.864a.96.96 0 0 0 .153-.409l.007-.066.004-.053-.011-.124Zm-4.892-.342 1.299-2.617 1.298 2.617h-2.597Zm-.779 1.55h3.082l-5.136 7.243 2.054-7.243Zm-.762-2.335L11.82 2.973h3.282l-1.406 2.833ZM7.688 8.141h4.948l-2.474 8.722L7.688 8.14Zm.49-1.55 1.983-2.995 1.983 2.995H8.18ZM6.783 5.57l-.86-2.598h2.58l-1.72 2.599Zm1.137 9.813L2.783 8.141h3.082l2.054 7.243ZM4.435 3.993l.86 2.598h-2.58l1.72-2.598Z" fill="#fff"/></svg>